<?xml version="1.0" encoding="iso-8859-1"?>
<!-- Generator: Adobe Illustrator 18.0.0, SVG Export Plug-In . SVG Version: 6.00 Build 0)  -->
<!DOCTYPE svg PUBLIC "-//W3C//DTD SVG 1.1//EN" "http://www.w3.org/Graphics/SVG/1.1/DTD/svg11.dtd">
<svg version="1.1" id="Capa_1" xmlns="http://www.w3.org/2000/svg" xmlns:xlink="http://www.w3.org/1999/xlink" x="0px" y="0px"
	 viewBox="0 0 303.124 303.124" style="enable-background:new 0 0 303.124 303.124;" xml:space="preserve">
<g>
	<path d="M42.51,199.764c5.598,0,12.132-3.01,17.806-8.121c2.389,13.318,7.742,31.008,14.837,42.043
		c1.104,1.717,3.005,2.755,5.047,2.755h23.104c2.04,0,3.94-1.037,5.045-2.752c7.102-11.029,12.459-28.721,14.85-42.042
		c5.678,5.109,12.211,8.117,17.808,8.117c3.555,0,6.62-1.187,8.872-3.437c6.284-6.294,3.629-18.439-6.18-28.252
		c-5.843-5.84-12.846-9.383-18.853-9.579c4.249-4.147,6.559-9.109,6.554-14.422c-0.003-3.312-2.688-5.995-6-5.995
		c-0.002,0-0.004,0-0.006,0c-3.313,0.003-5.997,2.692-5.994,6.005c0.003,3.202-2.778,6.528-7.536,9.131
		c-5.56-4.325-12.535-6.91-20.108-6.91c-7.572,0-14.547,2.585-20.105,6.91c-4.753-2.603-7.533-5.932-7.533-9.137
		c0-3.313-2.686-6-6-6c-3.314,0-6,2.687-6,6c0,5.311,2.31,10.271,6.555,14.416c-6.01,0.195-13.015,3.738-18.857,9.581
		c-9.81,9.81-12.463,21.957-6.17,28.255C35.889,198.577,38.955,199.764,42.51,199.764z M141.308,187.75
		c-0.081,0.008-0.182,0.014-0.303,0.014c-2.315,0-6.715-1.907-10.901-6.091c-4.937-4.937-6.276-9.642-6.09-11.182
		c0.082-0.008,0.184-0.014,0.307-0.014c2.314,0,6.71,1.904,10.892,6.083C140.151,181.502,141.492,186.208,141.308,187.75z
		 M112.572,179.121c0,9.473-5.34,32.026-12.678,45.319H83.61c-7.333-13.299-12.668-35.851-12.668-45.319
		c0-11.477,9.336-20.815,20.813-20.815C103.233,158.306,112.572,167.644,112.572,179.121z M48.298,176.561
		c4.18-4.181,8.577-6.085,10.892-6.085c0.124,0,0.226,0.006,0.308,0.014c0.189,1.535-1.149,6.241-6.095,11.183
		c-4.183,4.185-8.579,6.09-10.893,6.09c-0.122,0-0.223-0.006-0.304-0.014C42.017,186.212,43.354,181.506,48.298,176.561z"/>
	<path d="M182.578,76.142l-21.363-39.089V6c0-3.314-2.687-6-6-6H28.318c-3.313,0-6,2.686-6,6v31.051L0.735,76.543v0.001
		c-0.117,0.212-0.217,0.434-0.307,0.661c-0.02,0.05-0.037,0.101-0.055,0.151c-0.065,0.177-0.122,0.357-0.17,0.541
		c-0.015,0.058-0.031,0.116-0.044,0.174c-0.046,0.201-0.083,0.406-0.108,0.614c-0.004,0.03-0.011,0.06-0.014,0.09
		C0.013,78.988,0,79.203,0,79.421V295.09c0,3.313,2.686,6,6,6h171.533c3.313,0,6-2.687,6-6V79.808
		C183.533,77.813,183.143,77.324,182.578,76.142z M34.318,12h114.897v20.584H34.318V12z M31.877,44.584h119.779l15.76,28.837h-151.3
		L31.877,44.584z M171.533,289.09H12V85.421h159.533V289.09z"/>
</g>
<g>
</g>
<g>
</g>
<g>
</g>
<g>
</g>
<g>
</g>
<g>
</g>
<g>
</g>
<g>
</g>
<g>
</g>
<g>
</g>
<g>
</g>
<g>
</g>
<g>
</g>
<g>
</g>
<g>
</g>
</svg>
