<?xml version="1.0" encoding="iso-8859-1"?>
<!-- Generator: Adobe Illustrator 19.0.0, SVG Export Plug-In . SVG Version: 6.00 Build 0)  -->
<svg version="1.1" id="Capa_1" xmlns="http://www.w3.org/2000/svg" xmlns:xlink="http://www.w3.org/1999/xlink" x="0px" y="0px"
	 viewBox="0 0 464 464" style="enable-background:new 0 0 464 464;" xml:space="preserve">
<path style="fill:#87B5AB;" d="M112,424h176v40H112V424z"/>
<path style="fill:#BFDEE5;" d="M304,432H96L80,224h240L304,432z"/>
<path style="fill:#EF5822;" d="M307.696,384H92.304l-8.608-112h232.608L307.696,384z"/>
<path style="fill:#BFDEE5;" d="M416,0h-48l-35.608,35.608l-3.848-3.792c-8.659-8.551-22.598-8.504-31.2,0.104L256.92,72.352
	c-8.642,8.635-8.648,22.64-0.014,31.282c0.005,0.005,0.009,0.009,0.014,0.014l24.68,24.704c8.646,8.64,22.658,8.64,31.304,0
	L353.52,87.76c7.481-7.485,8.617-19.218,2.712-28L416,0z"/>
<g>
	<path style="fill:#F6F6E7;" d="M96,224c0-35.346,28.654-64,64-64c26.108,26.111,59.207,44.119,95.312,51.856L312,224H96z"/>
	<path style="fill:#F6F6E7;" d="M353.272,88v64c0,8.837-7.163,16-16,16s-16-7.163-16-16v-8c0-8.837-7.163-16-16-16s-16,7.163-16,16
		v24c0,8.837-7.163,16-16,16s-16-7.163-16-16v-64l5.904-3.936C289.738,82.358,322.987,77.906,353.272,88z"/>
</g>
<path style="fill:#87B5AB;" d="M48,216h304v16H48V216z"/>
<g>
</g>
<g>
</g>
<g>
</g>
<g>
</g>
<g>
</g>
<g>
</g>
<g>
</g>
<g>
</g>
<g>
</g>
<g>
</g>
<g>
</g>
<g>
</g>
<g>
</g>
<g>
</g>
<g>
</g>
</svg>
